# xmcd CD database file
#
# Track frame offsets:
#	183
#	34298
#	65983
#	111510
#	140283
#	161325
#	188958
#	217265
#	240158
#	266625
#
# Disc length: 3721 seconds
#
# Revision: 0
# Processed by: cddbd v1.5PL3 Copyright (c) Steve Scherf et al.
# Submitted via: CDex 1.51
#
DISCID=990e870a
DTITLE=Asgard - Songs of G
DYEAR=1993
DGENRE=Jazz
TTITLE0=Asgard
TTITLE1=Es weiﬂ und r‰t es doch keiner
TTITLE2=Grassroots
TTITLE3=Arrest
TTITLE4=Broken Dreams
TTITLE5=Miss "M."
TTITLE6=Anybody
TTITLE7=Unaccompanied Expectation
TTITLE8=Desert Song
TTITLE9=Arktische Eskimolieder
EXTD=YEAR: 1993
EXTT0=
EXTT1=
EXTT2=
EXTT3=
EXTT4=
EXTT5=
EXTT6=
EXTT7=
EXTT8=
EXTT9=
PLAYORDER=
